<svg width="44" height="44" viewBox="0 0 44 44" fill="none" xmlns="http://www.w3.org/2000/svg">
<path d="M30.7083 37.5833L38.0417 33L30.7083 28.4167V37.5833ZM11 16.5H33V12.8333H11V16.5ZM33 42.1667C30.4639 42.1667 28.3024 41.2726 26.5155 39.4845C24.7286 37.6964 23.8346 35.5349 23.8333 33C23.8321 30.4651 24.7262 28.3036 26.5155 26.5155C28.3048 24.7274 30.4663 23.8333 33 23.8333C35.5337 23.8333 37.6958 24.7274 39.4863 26.5155C41.2769 28.3036 42.1703 30.4651 42.1667 33C42.163 35.5349 41.2689 37.697 39.4845 39.4863C37.7001 41.2757 35.5386 42.1691 33 42.1667ZM5.5 40.3333V5.5H38.5V21.4042C37.9194 21.1292 37.3236 20.9 36.7125 20.7167C36.1014 20.5333 35.475 20.3958 34.8333 20.3042V9.16667H9.16667V34.925H20.3042C20.4569 35.8722 20.6941 36.7736 21.0155 37.6292C21.3369 38.4847 21.7568 39.2944 22.275 40.0583L22 40.3333L19.25 37.5833L16.5 40.3333L13.75 37.5833L11 40.3333L8.25 37.5833L5.5 40.3333ZM11 31.1667H20.3042C20.3958 30.525 20.5333 29.8986 20.7167 29.2875C20.9 28.6764 21.1292 28.0806 21.4042 27.5H11V31.1667ZM11 23.8333H24.0167C25.1778 22.7028 26.5302 21.8087 28.0738 21.1512C29.6175 20.4936 31.2596 20.1654 33 20.1667H11V23.8333Z" fill="white"/>
</svg>
