<svg width="60" height="60" viewBox="0 0 60 60" fill="none" xmlns="http://www.w3.org/2000/svg">
<path d="M57.5009 37.2343C57.307 37.0523 57.1336 36.8914 56.9777 36.7468C56.3666 36.18 56.0598 35.8954 55.9086 35.6334C55.7573 35.3715 55.6644 34.9637 55.4789 34.151C55.4316 33.9437 55.3789 33.713 55.3182 33.4541C54.9743 31.9861 53.7317 30.9435 52.2264 30.8597C51.9883 30.8466 51.7502 30.8342 51.5121 30.8227C50.6796 30.7812 50.2618 30.7603 49.9775 30.6568C49.6934 30.5535 49.3598 30.3007 48.6955 29.7974C48.526 29.6691 48.3374 29.5261 48.1246 29.3668C46.9176 28.4633 45.2955 28.4633 44.0885 29.3668C43.8978 29.5098 43.7076 29.6533 43.5177 29.7973C42.8532 30.3007 42.5197 30.5534 42.2354 30.6568C42.1165 30.7002 41.9735 30.7289 41.7871 30.7508C38.7123 27.9906 35.0311 26.0875 31.0726 25.1709C35.3542 23.1152 38.3174 18.7363 38.3174 13.678C38.3175 6.65285 32.6021 0.9375 25.577 0.9375C18.5518 0.9375 12.8365 6.65285 12.8365 13.678C12.8365 18.7365 15.7999 23.1157 20.0818 25.1713C16.0944 26.0953 12.3824 28.0196 9.29671 30.8101C4.8607 34.8218 2.06859 40.2922 1.43496 46.2137C1.42091 46.3445 1.43455 46.4768 1.475 46.6019C1.51544 46.7271 1.58178 46.8424 1.6697 46.9402C1.75762 47.038 1.86516 47.1163 1.9853 47.1698C2.10545 47.2233 2.23553 47.251 2.36706 47.2509L25.5753 47.2508L25.5769 47.2509L25.5784 47.2508H35.0218C35.3538 48.0187 35.9693 48.6529 36.7875 49.0034C37.0318 49.108 37.25 49.2 37.4459 49.2825C37.5456 49.3245 37.6385 49.3637 37.7258 49.4007L35.1135 55.0117C35.0241 55.2028 34.9889 55.4148 35.0119 55.6246C35.0349 55.8343 35.1152 56.0337 35.2439 56.2009C35.372 56.3685 35.5436 56.4977 35.7402 56.5742C35.9367 56.6508 36.1505 56.6719 36.3582 56.6351L38.9946 56.1745L40.3392 58.4884C40.4448 58.671 40.5986 58.8211 40.7838 58.9221C40.969 59.0232 41.1784 59.0714 41.3891 59.0614C41.5999 59.0522 41.8041 58.9852 41.9794 58.8678C42.1547 58.7504 42.2943 58.587 42.3831 58.3956L44.9538 52.8738C45.5264 52.6991 45.8516 52.6111 46.1066 52.6111C46.3616 52.6111 46.6868 52.6991 47.2595 52.8738L49.8301 58.3955C49.9225 58.5952 50.0703 58.7641 50.2559 58.8824C50.4414 59.0006 50.657 59.0632 50.8771 59.0626C51.079 59.0629 51.2775 59.0099 51.4525 58.9091C51.6275 58.8083 51.7728 58.6632 51.874 58.4884L53.2186 56.1745L55.8549 56.6352C56.0628 56.6719 56.2767 56.6508 56.4733 56.5741C56.67 56.4974 56.8417 56.3681 56.9698 56.2003C57.0983 56.0331 57.1784 55.8337 57.2013 55.6241C57.2242 55.4144 57.189 55.2025 57.0995 55.0114L54.4873 49.4007C54.5746 49.3637 54.6675 49.3246 54.7672 49.2825C54.9869 49.1901 55.2064 49.0971 55.4256 49.0034C56.8116 48.4098 57.6226 47.0051 57.4437 45.5079C57.4121 45.2439 57.3826 45.009 57.3562 44.7981C57.2525 43.971 57.2004 43.5559 57.253 43.258C57.3056 42.9601 57.4964 42.5878 57.8768 41.8461C57.9737 41.657 58.0817 41.4464 58.2016 41.2092C58.8819 39.8636 58.6003 38.2663 57.5009 37.2343ZM34.0116 41.2092C34.1314 41.4464 34.2395 41.657 34.3364 41.8463C34.7168 42.588 34.9077 42.9602 34.9602 43.2581C35.0127 43.556 34.9607 43.9711 34.8569 44.7982C34.835 44.973 34.811 45.1654 34.7855 45.3759H27.6891L30.0539 42.7615C30.1527 42.6522 30.2244 42.5212 30.2631 42.379C30.3018 42.2369 30.3065 42.0876 30.2768 41.9433L29.0719 36.1017L29.3062 36.3796C29.4039 36.4954 29.5281 36.5859 29.6684 36.6432C29.8086 36.7005 29.9607 36.7229 30.1115 36.7086C30.2623 36.6943 30.4074 36.6436 30.5344 36.561C30.6613 36.4783 30.7664 36.3661 30.8405 36.2339L35.1462 28.5607C36.5673 29.2329 37.9136 30.0532 39.1625 31.008C38.0422 31.3553 37.1736 32.265 36.895 33.4545C36.8342 33.7132 36.7816 33.9441 36.7344 34.1513C36.549 34.9639 36.456 35.3719 36.3047 35.6338C36.1534 35.8957 35.8467 36.1804 35.2356 36.7472C35.0606 36.9091 34.8862 37.0716 34.7123 37.2347C33.613 38.2662 33.3314 39.8636 34.0116 41.2092ZM21.2866 34.1364L17.7421 27.8197C18.4025 27.5747 19.0741 27.3611 19.7548 27.1796L24.2303 30.6461L21.2866 34.1364ZM24.6162 33.0967L25.5769 31.9575L26.5375 33.0966L28.3443 41.8563L25.5768 44.916L22.8093 41.8563L24.6162 33.0967ZM26.9237 30.6461L31.3943 27.1835C32.0752 27.3662 32.747 27.581 33.4075 27.8273L29.8672 34.1364L26.9237 30.6461ZM14.7115 13.678C14.7115 7.6868 19.5858 2.8125 25.577 2.8125C31.5682 2.8125 36.4425 7.6868 36.4425 13.678C36.4425 19.6677 31.5708 24.5409 25.5817 24.5435H25.5722C19.5832 24.5408 14.7115 19.6677 14.7115 13.678ZM25.577 26.4185H25.5817C26.7208 26.419 27.8583 26.5059 28.9843 26.6784L25.5769 29.3176L22.1667 26.6763C23.2938 26.505 24.4322 26.4188 25.5722 26.4185H25.577ZM16.0025 28.5512L20.3135 36.2337C20.3876 36.3658 20.4927 36.478 20.6196 36.5606C20.7466 36.6432 20.8917 36.6939 21.0425 36.7082C21.1933 36.7225 21.3453 36.7001 21.4856 36.6428C21.6258 36.5855 21.7501 36.4951 21.8477 36.3793L22.082 36.1016L20.8771 41.9432C20.8473 42.0875 20.852 42.2368 20.8907 42.379C20.9294 42.5211 21.0011 42.6522 21.1 42.7615L23.4648 45.3759L3.43441 45.3761C4.59316 37.837 9.43523 31.644 16.0025 28.5512ZM41.2664 56.3518L40.2876 54.6674C40.1913 54.5017 40.0465 54.3695 39.8727 54.2886C39.6989 54.2077 39.5045 54.182 39.3157 54.2149L37.3967 54.5502L39.2799 50.5052C39.4064 50.6893 39.5548 50.919 39.7423 51.2093C39.8576 51.3878 39.986 51.5866 40.1314 51.8092C40.719 52.7075 41.6613 53.2451 42.676 53.3241L41.2664 56.3518ZM52.8976 54.2149C52.7088 54.1819 52.5143 54.2076 52.3405 54.2885C52.1668 54.3694 52.0219 54.5016 51.9257 54.6674L50.9469 56.3517L49.538 53.3254C50.5525 53.2461 51.4945 52.7074 52.0819 51.8091C52.2273 51.5866 52.3557 51.3878 52.471 51.2093C52.6585 50.9189 52.8069 50.6893 52.9333 50.5052L54.8166 54.5502L52.8976 54.2149ZM56.5283 40.3634C56.4223 40.5727 56.3156 40.7818 56.2084 40.9905C55.2744 42.8119 55.2412 43.0007 55.4959 45.0314C55.5219 45.2391 55.551 45.4704 55.582 45.7303C55.6626 46.4043 55.3114 47.0125 54.6875 47.2796C54.4468 47.3827 54.232 47.4732 54.0391 47.5546C52.1531 48.3495 52.0062 48.4726 50.8959 50.1921C50.7824 50.3679 50.656 50.5637 50.5127 50.7828C50.1412 51.3509 49.4811 51.5911 48.8317 51.3947C48.5811 51.319 48.3583 51.2502 48.1583 51.1884C47.1804 50.8867 46.6435 50.7359 46.1067 50.7359C45.5699 50.7359 45.0329 50.8868 44.0551 51.1884C43.8551 51.2502 43.6324 51.3189 43.3817 51.3947C42.7322 51.5906 42.0722 51.3509 41.7007 50.7828C41.5574 50.5637 41.431 50.3679 41.3175 50.1921C40.2071 48.4727 40.0603 48.3495 38.1743 47.5546C37.9579 47.4636 37.7417 47.372 37.5259 47.2796C36.902 47.0125 36.5509 46.4043 36.6314 45.7303C36.6625 45.4704 36.6915 45.2391 36.7175 45.0314C36.9722 43.0007 36.939 42.8119 36.0049 40.9905C35.9094 40.8043 35.8031 40.5969 35.685 40.3634C35.3788 39.7576 35.5008 39.066 35.9955 38.6016C36.1668 38.441 36.3386 38.281 36.5108 38.1214C38.0113 36.7296 38.1071 36.5636 38.5624 34.568C38.6089 34.3639 38.6609 34.1367 38.7205 33.8818C38.8753 33.2209 39.4133 32.7695 40.091 32.7319C40.3525 32.7172 40.5853 32.7057 40.7944 32.6953C42.8385 32.5935 43.0186 32.5279 44.6502 31.2918C44.8169 31.1654 45.0027 31.0247 45.2122 30.8678C45.7557 30.461 46.4578 30.4611 47.0012 30.8678C47.2108 31.0246 47.3966 31.1654 47.5635 31.2919C49.1948 32.5277 49.375 32.5934 51.4191 32.6952C51.6281 32.7056 51.861 32.7172 52.1224 32.7318C52.8001 32.7694 53.3381 33.2208 53.4929 33.8817C53.5527 34.1366 53.6045 34.3639 53.6511 34.568C54.1064 36.5633 54.2023 36.7294 55.7027 38.1213C55.8562 38.2637 56.0271 38.4221 56.2179 38.6013C56.7126 39.066 56.8346 39.7576 56.5283 40.3634ZM46.1066 33.9934C42.2362 33.9934 39.0874 37.1422 39.0874 41.0125C39.0874 44.8827 42.2362 48.0315 46.1066 48.0315C49.9769 48.0315 53.1258 44.8828 53.1258 41.0126C53.1258 37.1423 49.9771 33.9934 46.1066 33.9934ZM46.1066 46.1566C43.2701 46.1566 40.9624 43.849 40.9624 41.0126C40.9624 38.1762 43.2701 35.8685 46.1066 35.8685C48.9431 35.8685 51.2508 38.1762 51.2508 41.0126C51.2508 43.849 48.9431 46.1566 46.1066 46.1566Z" fill="#F9F9FF"/>
</svg>
