<svg width="60" height="60" viewBox="0 0 60 60" fill="none" xmlns="http://www.w3.org/2000/svg">
<g clip-path="url(#clip0_80_114)">
<path d="M47.7264 29.0594C45.3092 27.8172 42.1924 28.5379 40.7786 30.6648L34.3452 40.3492C34.2785 40.4488 34.1639 40.491 34.036 40.4605C31.0858 39.7586 28.4541 39.7586 25.5012 40.4617C25.3759 40.4922 25.2613 40.45 25.1934 40.3492L18.7613 30.666C17.3474 28.5379 14.2307 27.8184 11.8121 29.0605C9.39626 30.3039 8.57942 33.0449 9.99056 35.1707L19.4688 49.4453C19.4995 49.4922 19.5061 49.5156 19.5061 49.5695V57.8805C19.5061 59.05 20.5882 60.0016 21.918 60.0016H37.6205C38.9504 60.0016 40.0324 59.05 40.0324 57.8805V49.5695C40.0324 49.5145 40.039 49.491 40.0684 49.4477L49.5493 35.1707C50.9604 33.0438 50.1436 30.3039 47.7264 29.0594ZM47.7064 34.2227L38.2228 48.5031C38.0043 48.8348 37.8977 49.184 37.8977 49.5684V57.8793C37.8977 58.0117 37.7711 58.123 37.6205 58.123H21.9193C21.7688 58.123 21.6422 58.0117 21.6422 57.8793V49.5684C21.6422 49.184 21.5356 48.8359 21.3157 48.5008L11.8348 34.2238C11.0166 32.991 11.4897 31.402 12.8901 30.6813C13.3387 30.4501 13.8493 30.3283 14.3692 30.3285C15.3833 30.3285 16.372 30.7891 16.9197 31.6129L23.3518 41.2949C23.9088 42.1375 25.0001 42.5301 26.0635 42.2734C28.6619 41.6547 30.8806 41.6547 33.4764 42.2723C34.5437 42.5289 35.635 42.1363 36.1907 41.2961L42.6228 31.6129C43.4423 30.3789 45.2492 29.9605 46.651 30.6801C48.0502 31.4008 48.5246 32.991 47.7064 34.2227ZM29.7679 25.4031C25.5718 25.4031 22.1592 28.4055 22.1592 32.0945C22.1592 35.7836 25.5731 38.7859 29.7679 38.7859C33.9654 38.7859 37.3807 35.7836 37.3807 32.0945C37.3807 28.4055 33.9654 25.4031 29.7679 25.4031ZM29.7679 36.9098C26.7484 36.9098 24.2926 34.75 24.2926 32.0945C24.2926 29.4391 26.7484 27.2793 29.7679 27.2793C32.7888 27.2793 35.2473 29.4391 35.2473 32.0945C35.2473 34.75 32.7888 36.9098 29.7679 36.9098ZM29.7679 18.3449C35.5191 18.3449 40.199 14.2293 40.199 9.17148C40.199 4.11367 35.5191 -0.00195312 29.7679 -0.00195312C24.0181 -0.00195312 19.3409 4.11367 19.3409 9.17148C19.3409 14.2293 24.0181 18.3449 29.7679 18.3449ZM29.7679 1.87422C34.3425 1.87422 38.0642 5.14727 38.0642 9.17031C38.0642 13.1934 34.3425 16.4664 29.7679 16.4664C25.1947 16.4664 21.4756 13.1934 21.4756 9.17031C21.4743 5.14844 25.1947 1.87422 29.7679 1.87422ZM24.5897 8.89141C24.1726 8.52461 24.1726 7.93047 24.5897 7.56367C25.0068 7.19688 25.6824 7.19688 26.0995 7.56367L29.0084 10.1219L33.4404 6.22422C33.8575 5.85742 34.533 5.85742 34.9501 6.22422C35.3672 6.59102 35.3672 7.18516 34.9501 7.55195L29.7639 12.1129C29.5561 12.2957 29.2829 12.3883 29.0097 12.3883C28.7366 12.3883 28.4634 12.2969 28.2555 12.1129L24.5897 8.89141ZM56.4558 15.093C56.2213 14.4426 55.5417 14.0055 54.7595 14.0055L51.3122 14.0113L50.2502 11.1238C50.2502 11.1227 50.2489 11.1203 50.2489 11.1191C50.0077 10.4734 49.3281 10.0387 48.5592 10.0387C47.7877 10.0387 47.1068 10.4723 46.8643 11.125L45.8062 14.0113L42.3536 14.0055C41.5834 14.0055 40.9052 14.4379 40.664 15.0824C40.4215 15.7316 40.6827 16.4371 41.3129 16.8367L44.1073 18.6145L43.0292 21.5066C42.796 22.1547 43.0586 22.8566 43.6768 23.248C43.9887 23.4484 44.3538 23.5492 44.7202 23.5492C45.088 23.5492 45.4558 23.4484 45.7689 23.2469L48.5592 21.4609L51.3442 23.2457C51.9692 23.6477 52.81 23.65 53.4429 23.2492C54.0679 22.8473 54.3251 22.143 54.0839 21.4996L53.0112 18.6133L55.8108 16.8344C56.4358 16.4324 56.693 15.7293 56.4558 15.093ZM51.5441 17.2293C50.9205 17.6301 50.6633 18.3344 50.9031 18.9824L51.712 21.1586L49.6026 19.8062C49.2895 19.6082 48.923 19.5086 48.5579 19.5086C48.1901 19.5086 47.8237 19.6094 47.5132 19.8086L45.4051 21.1586L46.2166 18.9836L46.2206 18.9707C46.4498 18.3262 46.1887 17.6266 45.5664 17.2258L43.457 15.884L46.0634 15.8887C46.8349 15.8887 47.5145 15.4551 47.7584 14.8023L48.5579 12.6191L49.3587 14.7977C49.5933 15.4504 50.2742 15.8875 51.0537 15.8875L53.6601 15.8828L51.5441 17.2293ZM13.7683 23.2457C14.0841 23.4484 14.4532 23.5504 14.8223 23.5504C15.1861 23.5504 15.5499 23.4508 15.8577 23.2527C16.4826 22.8566 16.7451 22.1559 16.508 21.4984L15.4326 18.6156L18.2256 16.8391C18.8572 16.4383 19.1184 15.7328 18.8759 15.0836C18.7593 14.7699 18.5328 14.4967 18.2287 14.3032C17.9247 14.1097 17.5588 14.0059 17.1835 14.0066L13.7336 14.0125L12.6756 11.1262C12.6756 11.1238 12.6743 11.1227 12.6743 11.1203C12.5577 10.8061 12.3311 10.5324 12.0269 10.3383C11.7227 10.1442 11.3565 10.0398 10.9806 10.0398C10.2118 10.0398 9.53217 10.4734 9.28965 11.125L8.22763 14.0125L4.77905 14.0066C3.99952 14.0066 3.31993 14.4437 3.0894 15.0836C2.84822 15.7293 3.10539 16.4336 3.73568 16.8391L6.52999 18.6145L5.45864 21.4984C5.21612 22.1441 5.47463 22.8484 6.10491 23.2539C6.40931 23.4475 6.77569 23.5513 7.15136 23.5502C7.52704 23.5492 7.89266 23.4434 8.19565 23.248L10.982 21.4621L13.7683 23.2457ZM7.82787 21.1598L8.63671 18.9824C8.87657 18.3355 8.61806 17.6312 7.99044 17.227L5.87838 15.8852L8.48747 15.8898C9.26567 15.8898 9.94659 15.4516 10.1784 14.8047L10.9806 12.6215L11.7828 14.8094C12.024 15.4551 12.7049 15.8898 13.4778 15.8898L16.0815 15.8852L13.9668 17.2305C13.3499 17.6277 13.0887 18.3273 13.3179 18.9719L13.3219 18.9848L14.1334 21.1598L12.0267 19.8109C11.7233 19.6153 11.3568 19.5098 10.9806 19.5098C10.6142 19.5098 10.2464 19.6094 9.92927 19.8098L7.82787 21.1598Z" fill="#F9F9FF"/>
</g>
<defs>
<clipPath id="clip0_80_114">
<rect width="60" height="60" fill="white"/>
</clipPath>
</defs>
</svg>
