<svg width="60" height="60" viewBox="0 0 60 60" fill="none" xmlns="http://www.w3.org/2000/svg">
<path d="M18.4556 18.6876C18.4556 19.0816 18.7283 19.4756 19.0919 19.5741L24.6374 21.3472L24.7283 25.0904C23.7283 29.2275 26.2737 34.6452 30.0919 34.6452C33.9101 34.6452 36.4556 29.4245 35.4556 25.1889L35.6374 21.3472L37.5465 20.6577V22.2337C37.5465 22.8248 37.9101 23.2188 38.4556 23.2188C39.001 23.2188 39.3647 22.8248 39.3647 22.2337V20.0666L40.9101 19.5741C41.2737 19.4756 41.5465 19.0816 41.5465 18.6876C41.5465 18.2936 41.3647 17.8996 41.001 17.7025L30.2737 12.6788C30.001 12.5803 29.8192 12.5803 29.5465 12.6788L18.8192 17.7025C18.6374 17.8996 18.3646 18.2936 18.4556 18.6876ZM30.0919 20.2637C31.001 20.2637 33.0919 20.4607 33.8192 20.9532L33.7283 23.4158C31.7283 22.8248 28.5465 22.7263 26.4556 23.4158L26.3646 20.8547C27.1828 20.3622 29.1828 20.2637 30.0919 20.2637ZM30.0919 32.7737C27.9101 32.7737 25.6374 29.2275 26.5465 25.5829C28.0919 24.6963 32.2737 24.7948 33.7283 25.5829C34.6374 29.0305 32.3646 32.7737 30.0919 32.7737ZM30.001 14.7474L38.0919 18.5891L35.1828 19.5741C34.0919 18.4906 31.5465 18.2936 30.0919 18.2936C28.6374 18.2936 26.0919 18.4906 25.001 19.5741L21.9101 18.5891L30.001 14.7474ZM39.9101 12.9744L44.1828 14.3534L44.2737 17.21C44.0919 17.8011 44.0919 18.4906 44.0919 18.7861C44.0919 21.7412 46.001 24.9918 48.7283 24.9918C51.4556 24.9918 53.3647 21.7412 53.3647 18.7861C53.3647 18.1951 53.2737 17.7025 53.1828 17.3085L53.2737 14.3534L54.4556 13.9594V14.9444C54.4556 15.5355 54.8192 15.9295 55.3647 15.9295C55.9101 15.9295 56.2737 15.5355 56.2737 14.9444V13.3684L57.3647 12.9744C57.7283 12.8759 58.001 12.4818 58.001 12.0878C58.001 11.6938 57.8192 11.2998 57.4556 11.1028L48.9101 7.06411C48.6374 6.96561 48.4556 6.96561 48.1828 7.06411L39.6374 11.1028C39.2737 11.2998 39.0919 11.6938 39.0919 12.0878C39.2737 12.4818 39.5465 12.8759 39.9101 12.9744ZM48.8192 13.4669C49.6374 13.4669 51.001 13.5654 51.6374 13.9594L51.5465 15.634C50.001 15.1414 47.6374 15.1414 46.0919 15.634L46.001 13.9594C46.6374 13.5654 48.001 13.4669 48.8192 13.4669ZM48.8192 23.1203C47.3646 23.1203 46.001 21.0517 46.001 18.8846C46.001 18.5891 46.0919 17.9981 46.1828 17.7025C47.3647 17.1115 50.5465 17.21 51.6374 17.7025C51.7283 17.9981 51.8192 18.4906 51.8192 18.8846C51.6374 20.9532 50.2737 23.1203 48.8192 23.1203ZM48.7283 9.1327L54.6374 11.8908L52.9101 12.4818C52.001 11.6938 50.001 11.4968 48.8192 11.4968C47.6374 11.4968 45.6374 11.6938 44.7283 12.4818L42.8192 11.8908L48.7283 9.1327Z" fill="#F9F9FF"/>
<path d="M59.1818 38.3877C58.2727 24.5971 59.2727 40.2593 58.5455 28.3403C58.3636 27.2568 58.1818 25.6807 56.4545 25.1882C55 24.6956 54.7273 24.4001 53 24.2031C52.7273 24.2031 52.3636 24.3016 52.1818 24.5971C52 24.8927 51.9091 25.1882 52 25.4837C52.1818 26.1732 52.2727 26.8627 52.3636 27.5523C52.4545 30.0149 50.9091 32.0835 48.8182 34.2505C45.8182 30.9999 44.8182 28.1433 45.5455 25.3852C45.6364 25.0897 45.5455 24.6956 45.3636 24.4986C45.1818 24.3016 44.9091 24.2031 44.6364 24.2031C42.8182 24.4001 42.5455 24.7941 41.0909 25.1882C39.4545 25.6807 39.2727 27.2568 39.0909 28.3403C38.7273 33.758 39.4545 21.9375 38.6364 35.0386C37.7273 34.7431 36.3636 34.2505 35.2727 34.152C35 34.152 34.6364 34.2505 34.4545 34.5461C34.2727 34.8416 34.1818 35.1371 34.2727 35.4326C35.6364 40.2593 33.7273 43.0174 30 46.8591C26.0909 42.6234 24.7273 38.9787 25.7273 35.4326C25.8182 35.1371 25.7273 34.7431 25.5455 34.5461C25.3636 34.2505 25.0909 34.152 24.7273 34.152C23.5455 34.2505 22.2727 34.6446 21.3636 35.0386C21.2727 33.758 21.1818 32.773 21.1818 31.7879C21.0909 27.1582 21 25.7792 19.0909 25.1882C17.6364 24.6956 17.3636 24.4001 15.6364 24.2031C15.3636 24.2031 15 24.3016 14.8182 24.5971C14.6364 24.7941 14.5455 25.1882 14.6364 25.4837C15.6364 29.2268 14.2727 31.2954 11.3636 34.349C8.36364 30.9999 7.36364 28.2418 8.09091 25.4837C8.18182 25.1882 8.09091 24.7941 7.90909 24.5971C7.81818 24.3016 7.54545 24.2031 7.18182 24.2031C5.36364 24.4001 5.09091 24.6956 3.63636 25.1882C1.72727 25.7792 1.63636 26.8627 1.36364 32.8715C1.27273 34.4475 1.18182 36.3191 1 38.7817C1 39.0772 1.09091 39.2742 1.27273 39.5698C1.45455 39.7668 1.72727 39.8653 1.90909 39.8653H18C17.9091 41.3428 17.9091 41.4413 17.2727 52.1783C17.2727 52.4738 17.3636 52.6708 17.5455 52.9663C17.7273 53.1633 18 53.2618 18.1818 53.2618H41.8182C42.0909 53.2618 42.2727 53.1633 42.4545 52.9663C42.6364 52.7693 42.7273 52.4738 42.7273 52.1783C42 40.9488 42.0909 42.0324 42 39.8653H58C58.3636 39.8653 58.8182 39.7668 59 39.4713C59.2727 38.9787 59.1818 38.6832 59.1818 38.3877ZM3.18182 33.0685C3.54545 27.3553 3.54545 27.3553 4.18182 27.1582C4.90909 26.9612 5.72727 26.5672 6.09091 26.4687C5.72727 29.6208 7.27273 32.8715 10.7273 36.5161C11.0909 36.9101 11.6364 36.9101 12 36.5161C14.9091 33.4625 17.2727 30.8029 16.7273 26.5672C17.0909 26.6657 17.8182 26.9612 18.6364 27.2568C19.2727 27.4538 19.3636 27.6508 19.5455 31.9849C19.6364 33.0685 19.6364 34.349 19.8182 35.8266C18.9091 36.4176 18.6364 37.2057 18.4545 37.9937H18.0909V35.4326C18.0909 34.8416 17.7273 34.4475 17.1818 34.4475C16.6364 34.4475 16.2727 34.8416 16.2727 35.4326V37.9937H6.63636V35.4326C6.63636 34.8416 6.27273 34.4475 5.72727 34.4475C5.18182 34.4475 4.81818 34.8416 4.81818 35.4326V37.9937H2.90909C3 35.9251 3.09091 34.349 3.18182 33.0685ZM38.0909 51.1932V47.8441C38.0909 47.2531 37.7273 46.8591 37.1818 46.8591C36.6364 46.8591 36.2727 47.2531 36.2727 47.8441V51.1932H23.9091V47.8441C23.9091 47.2531 23.5455 46.8591 23 46.8591C22.4545 46.8591 22.0909 47.2531 22.0909 47.8441V51.1932H19.2727C19.7273 43.7069 19.9091 40.5548 20.0909 38.9787C20.2727 37.7967 20.4545 37.4027 21.0909 37.2057C21.1818 37.2057 22.3636 36.6146 23.9091 36.2206C23.3636 40.2593 25.1818 44.298 29.5455 48.8291C29.9091 49.2232 30.4545 49.2232 30.8182 48.8291C34.5455 44.9875 37.4545 41.6383 36.5455 36.2206C37.8182 36.5161 39 37.0087 39.1818 37.1072C39.7273 37.4027 40 37.2057 40.2727 38.8802C40.3636 39.6683 40.2727 38.0922 41.0909 51.0947H38.0909V51.1932ZM55.3636 37.8952V35.3341C55.3636 34.7431 55 34.349 54.4545 34.349C53.9091 34.349 53.5455 34.7431 53.5455 35.3341V37.8952H44V35.3341C44 34.7431 43.6364 34.349 43.0909 34.349C42.5455 34.349 42.1818 34.7431 42.1818 35.3341V37.8952H41.8182C41.5455 36.9102 41.0909 36.1221 40.4545 35.7281C40.7273 31.9849 40.8182 30.3104 40.9091 28.5373C41.0909 27.3553 41.1818 27.1582 41.6364 27.0597C42.3636 26.8627 43.0909 26.4687 43.5455 26.3702C43.1818 29.5223 44.7273 32.773 48.1818 36.4176C48.5455 36.8116 49.0909 36.8116 49.4545 36.4176C52.1818 33.561 54.4545 30.9999 54.2727 27.4538C54.2727 27.1582 54.1818 26.7642 54.1818 26.3702C54.5455 26.4687 55.2727 26.7642 56.0909 27.0597C56.5455 27.1582 56.6364 27.3553 56.8182 28.6358C57.4545 38.9787 57.3636 37.5997 57.3636 37.8952H55.3636Z" fill="#F9F9FF"/>
<path d="M2.45384 12.9744L6.81747 14.3534L6.90838 17.21C6.0902 20.6577 8.18111 25.0904 11.3629 25.0904C14.4538 25.0904 16.6357 20.8547 15.8175 17.3085L15.9084 14.3534L17.0902 13.9594V14.9444C17.0902 15.5355 17.4538 15.9295 17.9993 15.9295C18.5447 15.9295 18.9084 15.5355 18.9084 14.9444V13.3684L19.9993 12.9744C20.3629 12.8759 20.6357 12.4818 20.6357 12.0878C20.6357 11.6938 20.4538 11.2998 20.0902 11.1028L11.5447 7.06411C11.272 6.96561 11.0902 6.96561 10.8175 7.06411L2.27202 11.1028C1.90838 11.2998 1.72656 11.6938 1.72656 12.0878C1.90838 12.4818 2.0902 12.8759 2.45384 12.9744ZM11.3629 13.4669C12.1811 13.4669 13.5447 13.5654 14.1811 13.9594L14.0902 15.634C12.5447 15.1414 10.1811 15.1414 8.63565 15.634L8.54474 13.9594C9.27202 13.5654 10.6357 13.4669 11.3629 13.4669ZM11.3629 23.1203C9.81747 23.1203 8.0902 20.6577 8.63565 17.7025C9.81747 17.1115 12.9993 17.21 14.0902 17.7025C14.8175 20.3622 12.9993 23.1203 11.3629 23.1203ZM11.272 9.1327L17.1811 11.8908L15.4538 12.4818C14.5447 11.6938 12.5447 11.4968 11.3629 11.4968C10.1811 11.4968 8.18111 11.6938 7.27202 12.4818L5.36293 11.8908L11.272 9.1327Z" fill="#F9F9FF"/>
</svg>
