<svg width="16" height="14" viewBox="0 0 16 14" fill="none" xmlns="http://www.w3.org/2000/svg">
<path fill-rule="evenodd" clip-rule="evenodd" d="M3.13872 5.54279C2.42939 5.06971 1.48265 5.17704 0.89698 5.79595C0.31073 6.41545 0.256475 7.36687 0.768058 8.04879L4.26806 12.7155C4.58481 13.1378 5.0748 13.3945 5.60213 13.4143C6.12947 13.4341 6.63755 13.2148 6.98522 12.8181L15.1519 3.4848C15.7562 2.79355 15.7241 1.75347 15.0784 1.1013C14.4326 0.448553 13.3926 0.405953 12.6961 1.00329L5.53564 7.14055L3.13872 5.54279ZM2.4918 6.51346L5.25623 8.3568C5.47381 8.50146 5.7608 8.48396 5.95972 8.31421L13.455 1.88938C13.6871 1.68988 14.0342 1.70446 14.2495 1.92204C14.4647 2.13904 14.4752 2.48613 14.274 2.71654L6.1073 12.0499C5.99122 12.1817 5.82206 12.2552 5.64589 12.2482C5.47031 12.2418 5.30698 12.156 5.2014 12.0155L1.7014 7.3488C1.53106 7.1213 1.54913 6.80454 1.74455 6.59804C1.93938 6.39154 2.25497 6.35596 2.4918 6.51346Z" fill="#192335"/>
</svg>
