<svg width="16" height="16" viewBox="0 0 16 16" fill="none" xmlns="http://www.w3.org/2000/svg">
<path d="M7.38421 14.1797C7.34177 14.1797 7.29979 14.171 7.2609 14.1539C7.22202 14.1369 7.18708 14.1121 7.15827 14.0809L1.06637 7.49119C1.02576 7.44726 0.998834 7.39244 0.988895 7.33344C0.978956 7.27445 0.986431 7.21384 1.01041 7.15902C1.03438 7.10421 1.07382 7.05758 1.12388 7.02483C1.17395 6.99208 1.23248 6.97464 1.2923 6.97464H4.22461C4.26864 6.97464 4.31215 6.98409 4.35222 7.00234C4.39228 7.0206 4.42796 7.04723 4.45686 7.08045L6.4928 9.42273C6.71283 8.95239 7.13877 8.16925 7.88621 7.21497C8.9912 5.8042 11.0465 3.7294 14.563 1.85642C14.6309 1.82023 14.71 1.81083 14.7845 1.83009C14.8591 1.84936 14.9237 1.89587 14.9656 1.96046C15.0076 2.02504 15.0238 2.103 15.011 2.17894C14.9983 2.25488 14.9575 2.32328 14.8968 2.37064C14.8834 2.38113 13.5276 3.44882 11.9672 5.40448C10.5311 7.20417 8.62215 10.1469 7.6828 13.946C7.6663 14.0128 7.62792 14.0721 7.57378 14.1144C7.51964 14.1568 7.45287 14.1799 7.38412 14.1799L7.38421 14.1797Z" fill="#192335"/>
</svg>
