<svg width="54" height="54" viewBox="0 0 54 54" fill="none" xmlns="http://www.w3.org/2000/svg">
<g clip-path="url(#clip0_237_124)">
<path d="M12.6567 8.19922C5.67661 8.19922 0.000488281 13.8769 0.000488281 20.8555C0.000488281 27.2268 4.73118 32.5137 10.8677 33.385C10.3764 36.9539 9.01374 40.3497 6.88475 43.2944C6.47068 43.8691 6.48618 44.6477 6.92799 45.2039C7.36147 45.7511 8.11473 45.9586 8.7758 45.6797C18.8211 41.4868 25.313 31.7412 25.313 20.8555C25.313 13.8769 19.6369 8.19922 12.6567 8.19922ZM41.3442 8.19922C34.3641 8.19922 28.688 13.8769 28.688 20.8555C28.688 27.2268 33.4187 32.5137 39.5552 33.385C39.0639 36.9539 37.7012 40.3497 35.5723 43.2944C35.1582 43.8691 35.1737 44.6477 35.6155 45.2039C36.049 45.7511 36.8022 45.9586 37.4633 45.6797C47.5086 41.4868 54.0005 31.7412 54.0005 20.8555C54.0005 13.8769 48.3244 8.19922 41.3442 8.19922Z" fill="#3758EE"/>
</g>
<defs>
<clipPath id="clip0_237_124">
<rect width="54" height="54" fill="white" transform="translate(0.000488281)"/>
</clipPath>
</defs>
</svg>
