<svg width="64" height="64" viewBox="0 0 64 64" fill="none" xmlns="http://www.w3.org/2000/svg">
<path d="M49 54.2842C57.2727 54.2842 64 47.5551 64 39.2842C64 31.7329 58.3933 25.4671 51.1204 24.4343C51.7026 20.2046 53.3176 16.1799 55.8409 12.6899C56.3316 12.0088 56.3133 11.0859 55.7896 10.4268C55.2759 9.77818 54.3831 9.53231 53.5996 9.86281C41.6941 14.8322 34 26.3826 34 39.2842C34 47.5551 40.7272 54.2842 49 54.2842ZM15 54.2842C23.2728 54.2842 30 47.5551 30 39.2842C30 31.7329 24.3933 25.4671 17.1204 24.4343C17.7026 20.2046 19.3176 16.1799 21.8409 12.6899C22.3316 12.0088 22.3133 11.0859 21.7896 10.4268C21.2759 9.77818 20.3831 9.5323 19.5996 9.8628C7.69413 14.8322 2.43924e-06 26.3826 1.31134e-06 39.2842C5.88279e-07 47.555 6.72725 54.2842 15 54.2842Z" fill="#3758EE"/>
</svg>
