<svg width="20" height="20" viewBox="0 0 20 20" fill="none" xmlns="http://www.w3.org/2000/svg">
<path d="M14.166 8.33398C15.5467 8.33398 16.666 7.2147 16.666 5.83398C16.666 4.45327 15.5467 3.33398 14.166 3.33398C12.7853 3.33398 11.666 4.45327 11.666 5.83398C11.666 7.2147 12.7853 8.33398 14.166 8.33398Z" stroke="#192335" stroke-width="1.5" stroke-linecap="round" stroke-linejoin="round"/>
<path d="M5.83301 16.668C7.21372 16.668 8.33301 15.5487 8.33301 14.168C8.33301 12.7873 7.21372 11.668 5.83301 11.668C4.4523 11.668 3.33301 12.7873 3.33301 14.168C3.33301 15.5487 4.4523 16.668 5.83301 16.668Z" stroke="#192335" stroke-width="1.5" stroke-linecap="round" stroke-linejoin="round"/>
<path d="M11.6663 11.6673H16.6663V15.834C16.6663 16.055 16.5785 16.267 16.4223 16.4232C16.266 16.5795 16.054 16.6673 15.833 16.6673H12.4997C12.2787 16.6673 12.0667 16.5795 11.9104 16.4232C11.7541 16.267 11.6663 16.055 11.6663 15.834V11.6673ZM3.33301 3.33398H8.33301V7.50065C8.33301 7.72166 8.24521 7.93363 8.08893 8.08991C7.93265 8.24619 7.72069 8.33398 7.49967 8.33398H4.16634C3.94533 8.33398 3.73337 8.24619 3.57709 8.08991C3.42081 7.93363 3.33301 7.72166 3.33301 7.50065V3.33398Z" stroke="#192335" stroke-width="1.5" stroke-linecap="round" stroke-linejoin="round"/>
</svg>
