<svg width="172" height="40" viewBox="0 0 172 40" fill="none" xmlns="http://www.w3.org/2000/svg">
<path d="M33.4355 20.7745L20 26.9704L6.56437 20.7745C5.80094 22.5455 5.37703 25.2452 5.37703 27.293L20 34.0569L34.6229 27.293C34.6229 25.2452 34.1991 22.5455 33.4355 20.7745Z" fill="#3758EE"/>
<path d="M37.6562 30.24H40V17.7473L37.6562 18.828V30.24Z" fill="#3758EE"/>
<path d="M20 24.3895L40 15.1662L20 5.94312L0 15.1662L20 24.3895Z" fill="#3758EE"/>
<path d="M63.0293 30.5H50.6953V9.08398H63.0293V12.8047H55.2363V17.5068H62.4873V21.2275H55.2363V26.75H63.0293V30.5ZM72.3457 30.793C70.5195 30.793 69.0303 30.0801 67.8779 28.6543C66.7354 27.2188 66.1641 25.1143 66.1641 22.3408C66.1641 19.5381 66.7451 17.4189 67.9072 15.9834C69.0693 14.5381 70.5879 13.8154 72.4629 13.8154C73.2441 13.8154 73.9326 13.9229 74.5283 14.1377C75.124 14.3525 75.6367 14.6406 76.0664 15.002C76.5059 15.3633 76.877 15.7686 77.1797 16.2178H77.3262C77.2676 15.9053 77.1943 15.4463 77.1064 14.8408C77.0283 14.2256 76.9893 13.5957 76.9893 12.9512V7.70703H81.4717V30.5H78.0439L77.1797 28.376H76.9893C76.7061 28.8252 76.3496 29.2354 75.9199 29.6064C75.5 29.9678 74.9971 30.2559 74.4111 30.4707C73.8252 30.6855 73.1367 30.793 72.3457 30.793ZM73.9131 27.2334C75.1338 27.2334 75.9932 26.8721 76.4912 26.1494C76.999 25.417 77.2676 24.3184 77.2969 22.8535V22.3701C77.2969 20.7783 77.0527 19.5625 76.5645 18.7227C76.0762 17.873 75.168 17.4482 73.8398 17.4482C72.8535 17.4482 72.082 17.873 71.5254 18.7227C70.9688 19.5723 70.6904 20.7979 70.6904 22.3994C70.6904 24.001 70.9688 25.207 71.5254 26.0176C72.0918 26.8281 72.8877 27.2334 73.9131 27.2334ZM101.174 14.123V30.5H97.7461L97.1455 28.4053H96.9111C96.5596 28.9619 96.1201 29.416 95.5928 29.7676C95.0654 30.1191 94.4844 30.3779 93.8496 30.5439C93.2148 30.71 92.5557 30.793 91.8721 30.793C90.7002 30.793 89.6797 30.5879 88.8105 30.1777C87.9414 29.7578 87.2627 29.1084 86.7744 28.2295C86.2959 27.3506 86.0566 26.208 86.0566 24.8018V14.123H90.5244V23.6885C90.5244 24.8604 90.7344 25.7441 91.1543 26.3398C91.5742 26.9355 92.2432 27.2334 93.1611 27.2334C94.0693 27.2334 94.7822 27.0283 95.2998 26.6182C95.8174 26.1982 96.1787 25.5879 96.3838 24.7871C96.5986 23.9766 96.7061 22.9902 96.7061 21.8281V14.123H101.174ZM123.015 9.08398L115.734 30.5H110.783L103.518 9.08398H108.103L112.131 21.8281C112.199 22.043 112.312 22.4482 112.468 23.0439C112.624 23.6299 112.78 24.2549 112.937 24.9189C113.103 25.5732 113.215 26.1152 113.273 26.5449C113.332 26.1152 113.435 25.5732 113.581 24.9189C113.737 24.2646 113.889 23.6445 114.035 23.0586C114.191 22.4629 114.304 22.0527 114.372 21.8281L118.43 9.08398H123.015ZM132.082 13.7861C134.279 13.7861 135.964 14.2646 137.136 15.2217C138.308 16.1787 138.894 17.6338 138.894 19.5869V30.5H135.773L134.909 28.2734H134.792C134.323 28.8594 133.845 29.3379 133.356 29.709C132.868 30.0801 132.307 30.3535 131.672 30.5293C131.037 30.7051 130.266 30.793 129.357 30.793C128.391 30.793 127.521 30.6074 126.75 30.2363C125.988 29.8652 125.388 29.2988 124.948 28.5371C124.509 27.7656 124.289 26.7891 124.289 25.6074C124.289 23.8691 124.899 22.5898 126.12 21.7695C127.341 20.9395 129.172 20.4805 131.613 20.3926L134.455 20.3047V19.5869C134.455 18.7275 134.23 18.0977 133.781 17.6973C133.332 17.2969 132.707 17.0967 131.906 17.0967C131.115 17.0967 130.339 17.209 129.577 17.4336C128.815 17.6582 128.054 17.9414 127.292 18.2832L125.812 15.2656C126.682 14.8066 127.653 14.4453 128.728 14.1816C129.812 13.918 130.93 13.7861 132.082 13.7861ZM134.455 22.9121L132.727 22.9707C131.281 23.0098 130.275 23.2686 129.709 23.7471C129.152 24.2256 128.874 24.8555 128.874 25.6367C128.874 26.3203 129.074 26.8086 129.475 27.1016C129.875 27.3848 130.397 27.5264 131.042 27.5264C131.999 27.5264 132.805 27.2432 133.459 26.6768C134.123 26.1104 134.455 25.3047 134.455 24.2598V22.9121ZM150.407 27.2334C150.896 27.2334 151.369 27.1846 151.828 27.0869C152.297 26.9893 152.761 26.8672 153.22 26.7207V30.0459C152.741 30.2607 152.146 30.4365 151.433 30.5732C150.729 30.7197 149.958 30.793 149.118 30.793C148.142 30.793 147.263 30.6367 146.481 30.3242C145.71 30.002 145.1 29.4502 144.65 28.6689C144.211 27.8779 143.991 26.7793 143.991 25.373V17.4775H141.853V15.5879L144.313 14.0938L145.603 10.6367H148.459V14.123H153.044V17.4775H148.459V25.373C148.459 25.998 148.635 26.4668 148.986 26.7793C149.348 27.082 149.821 27.2334 150.407 27.2334ZM163.298 13.8154C164.812 13.8154 166.115 14.1084 167.209 14.6943C168.303 15.2705 169.147 16.1104 169.743 17.2139C170.339 18.3174 170.637 19.665 170.637 21.2568V23.4248H160.075C160.124 24.6846 160.5 25.6758 161.203 26.3984C161.916 27.1113 162.902 27.4678 164.162 27.4678C165.207 27.4678 166.164 27.3604 167.033 27.1455C167.902 26.9307 168.796 26.6084 169.714 26.1787V29.6357C168.903 30.0361 168.054 30.3291 167.165 30.5146C166.286 30.7002 165.217 30.793 163.957 30.793C162.316 30.793 160.861 30.4902 159.592 29.8848C158.332 29.2793 157.341 28.3564 156.618 27.1162C155.905 25.876 155.549 24.3135 155.549 22.4287C155.549 20.5146 155.871 18.9229 156.516 17.6533C157.17 16.374 158.078 15.417 159.24 14.7822C160.402 14.1377 161.755 13.8154 163.298 13.8154ZM163.327 16.9941C162.458 16.9941 161.735 17.2725 161.159 17.8291C160.593 18.3857 160.266 19.2598 160.178 20.4512H166.447C166.438 19.7871 166.315 19.1963 166.081 18.6787C165.856 18.1611 165.515 17.751 165.056 17.4482C164.606 17.1455 164.03 16.9941 163.327 16.9941Z" fill="#192335"/>
</svg>
